<?xml version="1.0" encoding="UTF-8"?>
<svg width="56.774" height="12.115" version="1.1" viewBox="0 0 56.773808 12.11478" xmlns="http://www.w3.org/2000/svg" xmlns:cc="http://creativecommons.org/ns#" xmlns:dc="http://purl.org/dc/elements/1.1/" xmlns:rdf="http://www.w3.org/1999/02/22-rdf-syntax-ns#">
    <path d="m55.258 4.9898c-0.73078-0.014807-1.4822-0.076182-2.2214 0.097198-0.3427 0.080362-0.67716 0.22162-0.99467 0.37733-0.49829 0.24443-0.62737 0.68791-0.55919 1.2064 0.06555 0.49805 0.38378 0.80744 0.84374 0.88673 0.44014 0.075824 0.90917 0.09481 1.3505 0.03224 1.162-0.1649 1.8966-1.3648 1.581-2.5999zm1.6875 3.9198c-0.2984 0-0.59704 0.00657-0.89532-0.00143-0.53172-0.01409-0.5734-0.055167-0.64062-0.56647-0.01708-0.12956-0.03749-0.25876-0.05362-0.36933-0.47787 0.28634-0.9075 0.61173-1.3881 0.81854-1.2263 0.52755-2.7202 0.18568-3.6073-0.65173-0.70558-0.66618-0.87192-2.4554-0.01743-3.2778 0.37399-0.3599 0.85938-0.64946 1.3457-0.83741 0.87789-0.33912 1.814-0.42939 2.7582-0.39011 0.25183 0.010508 0.5045 0.00167 0.73675 0.00167 0.18807-0.8386-0.16132-1.4832-0.88147-1.7158-0.91049-0.29434-1.7879-0.17493-2.5657 0.3593-0.68899 0.4731-0.6792 0.33291-1.1709-0.16478-0.11153-0.11296-0.21959-0.2295-0.32419-0.34903-0.0234-0.026867-0.02508-0.072959-0.04848-0.14735 0.5131-0.53567 1.1804-0.83884 1.8846-1.0372 0.97521-0.27464 1.9653-0.27094 2.9414 0.031524 1.0433 0.32324 1.6334 1.07 1.9265 2.0881z"/>
    <path d="m11.134 1.4202c1.6075-1.4241 3.7076-1.4132 4.9491 0.24073 0.36969-0.28945 0.72791-0.59513 1.1118-0.86416 0.83586-0.5857 2.6623-0.60385 3.639 0.28168 0.63525 0.57603 0.96088 1.343 0.98619 2.1723 0.05206 1.7086 0.02531 3.4197 0.01994 5.1298-0.0014 0.44408-0.07021 0.50868-0.53316 0.51262-1.37 0.011821-1.1319 0.084541-1.1435-1.0772-0.01134-1.1333 0.0076-2.267-0.01194-3.4-0.0074-0.43441-0.05541-0.87323-0.1366-1.3001-0.1335-0.70152-0.61842-1.0847-1.345-1.1196-1.2955-0.062092-1.9281 0.43178-2.1227 1.7235-0.07642 0.50725-0.06567 1.0295-0.07069 1.5451-0.0099 1.014-1.19e-4 2.0283-0.0047 3.0424-0.0024 0.55668-0.03236 0.59453-0.55788 0.59597-1.3199 0.00346-1.1155 0.08669-1.1255-1.1026-0.0086-1.034 0.0099-2.0683-0.0072-3.102-0.0075-0.45483-0.06293-0.90989-0.11487-1.3627-0.17553-1.5319-1.5219-1.5607-2.4125-1.1467-0.59226 0.27547-0.94261 0.80087-1.027 1.4508-0.07391 0.56886-0.10162 1.1463-0.11177 1.7207-0.01708 0.97401-0.0014 1.9486-5e-3 2.9229-0.0021 0.59155-0.03021 0.62761-0.58844 0.62809-1.2574 0.00107-1.1017 0.10687-1.1048-1.0615-0.00597-2.1873-0.00346-4.3746-0.00275-6.562 2.388e-4 -0.73567 0.00263-0.73567 0.71454-0.73938 0.01982-1.194e-4 0.03976 0 0.05959-1.194e-4 0.83335-0.001672 0.83335-0.001672 0.94583 0.87144"/>
    <path d="m29.83 4.7261c0-0.13887 0.0117-0.27906-0.0019-0.41662-0.10723-1.0872-0.74284-1.9289-1.7294-2.1953-1.0735-0.2898-2.0617-0.13207-2.8068 0.77675-0.66081 0.80577-0.67394 1.7453-0.48122 2.7127 0.20729 1.0411 1.1866 1.8022 2.2776 1.8523 1.6532 0.075944 2.754-1.0277 2.7417-2.7298m-5.1301 3.1643c0 1.3258 0 2.5365-1.2e-4 3.7472 0 0.13923-0.0032 0.27846-5.97e-4 0.41757 0.0055 0.29924-0.14556 0.43441-0.43835 0.43465-1.4624 0.0014-1.2495 0.14007-1.2504-1.1528-0.0026-3.3194 2.39e-4 -6.639 9.55e-4 -9.9584 1.2e-4 -0.23571 1.2e-4 -0.47154 1.2e-4 -0.80063 0.50331-0.005254 0.95085-0.025553 1.3961-0.001911 0.09505 0.005015 0.22532 0.15547 0.26174 0.26485 0.05445 0.16323 0.03988 0.34939 0.06054 0.59573 0.14675-0.090511 0.25768-0.14663 0.35512-0.22067 1.9169-1.455 4.6629-0.94667 5.9351 1.0943 0.19953 0.32001 0.27583 0.62427 0.17326 1.0106-0.24837 0.93592-0.25589 1.8864 0.0154 2.8225 0.09111 0.31416 0.0326 0.57101-0.11404 0.8509-1.121 2.1406-4.3658 2.7574-6.1089 1.0958-0.05409-0.051465-0.12335-0.087168-0.28586-0.19953"/>
    <path d="m6.5857 3.9394c0.1624-0.95658-0.5722-1.9212-1.542-2.069-1.6697-0.25446-2.809 0.50163-3.0565 2.069zm-4.565 1.4918c0.0082392 0.59895 0.27882 1.064 0.70869 1.4329 1.1542 0.99049 2.6887 0.92553 3.7746-0.13959 0.42282-0.41482 0.42438-0.4147 0.86296-0.051465 0.22676 0.18783 0.45423 0.37482 0.69842 0.57626-0.26377 0.57495-0.72493 0.94392-1.2238 1.1983-1.6821 0.85771-3.3631 0.85234-4.9757-0.20156-0.92028-0.60146-1.4182-1.5168-1.6017-2.5592-0.23894-1.3572-0.040957-2.6571 0.87467-3.7667 1.3432-1.6277 3.9517-2.0057 5.6717-0.80708 0.76182 0.53101 1.2567 1.2712 1.4643 2.1731 0.11499 0.49948 0.17052 1.0181 0.19631 1.5309 0.027583 0.5457-0.05051 0.60397-0.61746 0.61077-0.75538 0.00908-1.511 0.00322-2.2665 0.00334-1.1513 1.194e-4 -2.3025 0-3.5664 0z"/>
    <path d="m33.768 4.7116c-0.09195 1.3437 1.004 2.615 2.5533 2.6513 1.49 0.034867 2.6906-1.1398 2.6966-2.5955 0.0061-1.4662-1.1725-2.6512-2.6383-2.6529-1.4654-0.00155-2.6069 1.1335-2.6116 2.597m-1.5582-0.010985c-0.0045-2.2674 1.8935-4.1561 4.1546-4.1233 2.3473 0.034031 4.2299 1.7555 4.2021 4.2105-0.02782 2.4534-2.0101 4.1408-4.2899 4.1242-2.1437-0.015524-4.1693-1.9565-4.0668-4.2114"/>
    <path d="m43.046 1.5689c0.53841-0.55238 1.0602-0.97568 1.7612-1.0966 0.15607-0.026867 0.31404-0.052181 0.47202-0.058271 0.79036-0.030807 0.88625 0.071884 0.8398 0.86332-0.0129 0.21828-0.01672 0.43715-0.01863 0.65591-0.0026 0.31297-0.14472 0.38832-0.4565 0.36849-0.40826-0.025912-0.8312-0.011224-1.2312 0.069018-0.63728 0.12789-1.0592 0.55047-1.2139 1.1796-0.10818 0.44014-0.18341 0.89843-0.19392 1.3504-0.02651 1.1328-0.0048 2.2666-0.0086 3.4-0.0019 0.58773-0.02794 0.61865-0.59597 0.61615-1.2159-0.00525-1.0822 0.13087-1.0999-1.0732-0.0072-0.48313 0.06961-0.93318 0.22759-1.3956 0.41196-1.2066 0.36778-2.4304-0.07332-3.6219-0.24622-0.6651-0.12765-1.3344-0.12132-2.0033 8.36e-4 -0.088243 0.1575-0.20479 0.2664-0.2535 0.10078-0.045136 0.23428-0.018747 0.35345-0.020419 0.98345-0.013254 0.98345-0.013016 1.0928 1.02"/>
    <path d="m48.82 4.7478c2.39e-4 1.1715 0.0041 2.343-0.0013 3.5145-0.0029 0.60253-0.04072 0.63262-0.646 0.64373-0.98368 0.018031-1.0101 0.019702-1.0712-0.94333-0.04884-0.76923-0.02902-1.5431-0.02961-2.3148-9.55e-4 -1.3878 0.0055-2.7755 0.0088-4.1634 1.2e-4 -0.039644 0.0012-0.079287 0.0026-0.11893 0.03045-0.81532 0.03284-0.8201 0.85472-0.81771 0.86356 0.002627 0.88923-0.11965 0.88326 0.86416-0.0068 1.1119-0.0016 2.2239-0.0013 3.3358"/>
</svg>
