<?xml version="1.0" encoding="UTF-8"?>
<svg class="icon" width="379.74" height="380.33" version="1.1" viewBox="0 0 379.73553 760.65131" xmlns="http://www.w3.org/2000/svg" xmlns:cc="http://creativecommons.org/ns#" xmlns:dc="http://purl.org/dc/elements/1.1/" xmlns:rdf="http://www.w3.org/1999/02/22-rdf-syntax-ns#">
    <path d="m137.09 446.46s1.2047-0.96377 0.72283-2.6504c-89.389-195.4-211.31-343.08-211.31-343.08s-66.476 63.102-61.705 126.23c2.5781 47.947 38.43 76.137 38.43 76.137 57.97 56.139 197.96 127.94 230.73 144.08 0 0 2.1685 0 3.1322-0.72282zm-21.685 47.706c-0.96377-1.6866-3.1322-1.6866-3.1322-1.6866l-233.28 7.7101c25.347 45.297 67.994 80.233 112.33 70.114 30.84-7.7101 99.991-56.38 122.88-72.764 1.9275-1.6866 1.2047-3.3732 1.2047-3.3732zm3.3732-20.48c1.2047-1.6866-0.96376-3.3732-0.96376-3.3732-102.4-69.15-300.98-175.89-300.98-175.89-18.095 56.38 6.2163 101.68 6.2163 101.68 25.371 53.007 73.704 69.15 73.704 69.15 22.287 9.3967 44.454 10.12 44.454 10.12 3.6141 0.96376 139.02 0 175.16 0 1.4456 0 2.4094-1.6866 2.4094-1.6866zm93.244-46.02c1.6866 0.72283 3.3732-1.6866 3.3732-1.6866 22.167-32.527 122.88-181.91 143.36-273.23 0 0 11.083-44.333 0-74.234 0 0-14.456-56.332-76.86-71.704 0 0-17.83-4.2647-36.623-6.8186 0 0-69.15 88.787-35.9 425.02h0.72282c0 2.6504 1.9275 2.6504 1.9275 2.6504zm54.453 64.813s-1.6866 0-2.4094 1.6866c0 0 0 2.6504 0.72283 3.3732 22.167 16.384 90.594 63.368 122.88 72.764 0 0 60.717 20.48 112.76-69.15zm-23.853-46.02s1.6866 0.72282 3.3732 0c33.25-16.143 172.51-87.221 230.58-143.36 0 0 35.9-29.154 38.31-76.86 3.6141-64.813-61.44-125.51-61.44-125.51s-121.92 146.71-211.55 342.35h0.72282s-1.6866 1.6866 0 3.3732zm319.25-152.03c-14.456 7.9511-29.395 15.179-43.369 24.094-18.312 9.6376-36.141 19.757-54.212 29.877-30.6 17.107-60.958 34.696-91.076 52.525-11.565 5.7826-22.167 13.252-33.491 19.757-6.0235 3.8551-26.504 16.866-31.081 18.552-7.4692 6.2645-16.625 9.8786-24.094 15.902-8.192 3.6141-14.697 10.36-22.408 14.456-4.3369 4.096 1.2047 6.2645 5.0598 5.0598h181.19c30.359-4.8188 59.753-17.83 81.197-40.237 8.6739-8.9148 16.143-19.275 22.408-30.118 6.2645-10.601 10.601-22.408 13.252-34.214 1.6866-6.7464 2.6504-13.734 3.6141-20.721 0-7.4692 1.6866-14.697 0-22.167 0.24094-5.3007-0.48188-10.601-1.9275-15.661-1.2047-5.7826-2.1685-12.77-4.8188-17.107zm-394.66 133.24c-1.6866 0.72283-3.3732-1.6866-3.3732-1.6866-22.167-32.527-122.64-181.91-143.12-273.23 0 0-11.083-44.333 0-74.234 0 0 14.456-56.332 76.619-71.704 0 0 17.83-4.2647 36.623-6.8186 0 0 69.15 88.787 35.9 425.02h-0.72282c0 2.6504-1.9275 2.6504-1.9275 2.6504zm402.37 331.29v-122.16h-28.913v122.16zm-130.59-72.764h76.86v21.444h-76.86c0 22.167 9.3967 29.877 31.563 29.877h45.297v21.444h-46.984c-15.42 0-28.19-0.96376-40.96-10.36-13.734-10.12-20.48-26.504-20.48-48.67 0-42.647 19.516-63.127 62.404-63.127h46.02v21.444h-45.297c-20.48 0-30.6 9.3967-31.563 27.949zm-213.47-49.393 30.84 93.967 25.54-93.967h33.25l29.154 93.967 28.913-93.967h28.19l-40.96 122.16h-34.214l-28.19-91.317-24.576 91.317h-33.491l-44.333-122.16zm-68.909 0 56.139 122.16h-30.6l-12.047-29.154h-57.585l-11.806 29.154h-29.395l55.898-122.16zm-35.177 71.8h39.273l-19.998-46.984zm-142.88 1.6866c0 21.203 6.7464 30.6 29.636 30.6 23.13 0 29.877-9.3967 29.877-30.6v-73.487h27.708v74.21c0 15.42-1.9275 26.504-7.7101 32.527-10.842 11.806-26.744 17.107-49.875 17.107-22.889 0-38.792-5.3007-49.634-17.107-6.2645-6.7464-7.7101-17.107-7.7101-32.527v-74.21h27.708zm-78.306-24.094v-49.393h27.708v122.16h-27.708v-50.357h-61.97v50.357h-27.853v-122.16h27.853v49.393z" fill=""/>
</svg>
