<?xml version="1.0" encoding="UTF-8"?>
<svg width="2078.3" height="304.3" version="1.1" viewBox="0 0 160.23931 23.462125" xmlns="http://www.w3.org/2000/svg" xmlns:cc="http://creativecommons.org/ns#" xmlns:dc="http://purl.org/dc/elements/1.1/" xmlns:rdf="http://www.w3.org/1999/02/22-rdf-syntax-ns#">
    <g transform="translate(-16.258 -84.647)" clip-rule="evenodd" fill-rule="evenodd">
    <path d="m104.13 95.542s-1.559-0.964-2.523-1.337c0 0-2.984-1.383-3.576-2.041 0 0-1.163-1.096-0.482-2.369 0 0 0.285-0.833 1.514-0.833 0 0 1.6 0.088 1.6 1.403v1.855h5.734l-0.01-2.732s0.441-4.474-6.754-4.671c0 0-5.659-0.372-7.282 2.676 0 0-0.637 0.68-0.637 3.048v1.711s-0.065 1.974 0.943 3.246c0 0 0.57 0.834 1.974 1.754 0 0 2.851 1.535 4.562 2.414 0 0 1.727 0.986 1.5 2.555 0 0-0.141 1.611-1.809 1.545 0 0-1.525-0.068-1.525-1.648v-1.854h-6.11v2.693s-0.171 5.15 7.68 5.15c0 0 7.502 0.152 7.852-5.285v-2.193c-1e-3 0 0.265-3.332-2.651-5.087zm-29.356-10.084-1.92 12.032h-0.449l-1.834-11.924h-9.578l-0.48 21.789h5.671l0.068-16.417h0.446l3.006 16.414h5.966l2.969-16.408h0.395l0.137 16.411h5.701l-0.614-21.897zm-33.758 0.091-3.773 21.781h6.105l2.235-16.888h0.502l2.234 16.888h6.104l-3.772-21.781zm128.1 9.693v3.213h1.566v3.449c0 1.686-1.441 1.717-1.441 1.717-1.752 0-1.686-1.602-1.686-1.602v-11.93c0-1.229 1.555-1.295 1.555-1.295 1.492 0 1.502 1.466 1.502 1.466v1.814h5.748c0.188-3.541-0.518-4.398-0.518-4.398-1.426-3.202-6.82-3.027-6.82-3.027-8.289 0-7.369 6.36-7.369 6.36v11.535c0.178 5.965 8.346 5.359 8.484 5.354 3.633-0.402 4.73-1.557 4.73-1.557 1.01-0.75 1.27-1.789 1.27-1.789 0.289-0.605 0.361-2.533 0.361-2.533v-6.777zm-19.053 3.545h-0.25l-5.833-13.323h-6.979v21.893h5.68l-0.34-13.321h0.254l6.043 13.321h6.767v-21.895h-5.752zm-26.927 3.115s0.082 1.797-1.584 1.797c0 0-1.752 0.094-1.752-1.752l-0.018-16.47h-6.23v16.339s-0.639 6.184 8.088 6.184c0 0 7.584 0.09 7.584-5.9v-16.622h-6.088zm-93.999-6.36s-1.557-0.964-2.522-1.336c0 0-2.982-1.382-3.574-2.041 0 0-1.163-1.098-0.481-2.368 0 0 0.284-0.833 1.512-0.833 0 0 1.601 0.087 1.601 1.402v1.855h5.736l-0.011-2.733s0.438-4.474-6.754-4.67c0 0-0.542-0.035-1.337 5e-3 0 0-4.357 0.234-5.915 2.624-9e-3 0.018-0.022 0.031-0.031 0.047 0 0-0.636 0.679-0.636 3.048v1.711s-0.066 1.974 0.943 3.246c0 0 0.57 0.834 1.974 1.754 0 0 2.85 1.535 4.561 2.414 0 0 1.729 0.984 1.5 2.555 0 0-0.141 1.611-1.808 1.545 0 0-1.525-0.068-1.525-1.648v-1.855h-6.111v2.695s-0.171 5.15 7.68 5.15c0 0 7.5 0.152 7.853-5.285v-2.191c0-2e-3 0.262-3.336-2.655-5.091z"/>
    </g>
</svg>
